/* XPM */
static char * test_xpm[] = {
"41 19 102 2",
"  	c None",
". 	c #FF0005",
"+ 	c #FF0004",
"@ 	c #FD0003",
"# 	c #F40003",
"$ 	c #D40003",
"% 	c #FE0003",
"& 	c #F10003",
"* 	c #C00003",
"= 	c #A50002",
"- 	c #CB0003",
"; 	c #9E0002",
"> 	c #AD0002",
", 	c #580001",
"' 	c #9F0001",
") 	c #A20001",
"! 	c #5C0001",
"~ 	c #000000",
"{ 	c #010000",
"] 	c #250000",
"^ 	c #B10002",
"/ 	c #A90002",
"( 	c #8B0001",
"_ 	c #FA0003",
": 	c #E30003",
"< 	c #AC0002",
"[ 	c #9B0002",
"} 	c #EE0002",
"| 	c #260000",
"1 	c #D50002",
"2 	c #2F0000",
"3 	c #F20002",
"4 	c #F90002",
"5 	c #AF0002",
"6 	c #130000",
"7 	c #3B0000",
"8 	c #8C0002",
"9 	c #CF0003",
"0 	c #BC0002",
"a 	c #2C0000",
"b 	c #300000",
"c 	c #CC0002",
"d 	c #FA0002",
"e 	c #6B0001",
"f 	c #A00001",
"g 	c #770001",
"h 	c #F60003",
"i 	c #C50003",
"j 	c #790001",
"k 	c #B20002",
"l 	c #320000",
"m 	c #430000",
"n 	c #230000",
"o 	c #AE0002",
"p 	c #DA0002",
"q 	c #380000",
"r 	c #FD0002",
"s 	c #E10002",
"t 	c #C30003",
"u 	c #6C0001",
"v 	c #A10002",
"w 	c #A30001",
"x 	c #600001",
"y 	c #4A0000",
"z 	c #4D0000",
"A 	c #700001",
"B 	c #520000",
"C 	c #FB0003",
"D 	c #ED0003",
"E 	c #950002",
"F 	c #E70002",
"G 	c #EB0002",
"H 	c #2B0000",
"I 	c #BE0002",
"J 	c #C00002",
"K 	c #F70003",
"L 	c #D80003",
"M 	c #860002",
"N 	c #4C0001",
"O 	c #890002",
"P 	c #B00002",
"Q 	c #550001",
"R 	c #B50002",
"S 	c #490001",
"T 	c #D50003",
"U 	c #480001",
"V 	c #A20002",
"W 	c #5B0001",
"X 	c #870002",
"Y 	c #E20003",
"Z 	c #EC0003",
"` 	c #D60003",
" .	c #460001",
"..	c #650001",
"+.	c #9C0002",
"@.	c #C40003",
"#.	c #C10003",
"$.	c #780001",
"%.	c #6E0001",
"&.	c #6A0001",
"*.	c #5E0001",
"=.	c #9F0002",
"                                                                                  ",
"              . . + + + + + + + + + + + + + + + + + + + + + + + + + +             ",
"          . . . + + + + + + + + + + + + + + + + + + + + + + + + + + + + @         ",
"        . . + + + + + + + + + + + + + + + + + + + + + + + + + + + + + + # $       ",
"      . . + + + + + % % % % % % % % % % % % % % % % % % % % % % % % + + & * =     ",
"    . . + + + % % % % % % % % % % % % % % % % % % % % % % % % @ % % % % # - ; >   ",
"    . + + + % % % % , ' % % ) ! % ~ ~ { ] ^ % % ~ / % % % ( ~ % % @ % @ _ : < [   ",
"  . . + + % % % % % } | 1 1 2 3 % ~ % 4 5 6 % % ~ 7 % % 4 2 ~ % % % % @ @ & * 8 9 ",
"  . + + + % % % % % % 0 a b c % % ~ % d ^ 6 % % ~ e ^ % f g ~ % % % % @ @ h i j k ",
"  + + + % % % % % % % % l m % % % ~ ~ { n o % % ~ p q r 2 s ~ % % % % % @ h t u v ",
"  + + + % % % % % % % w x y o % % ~ % % % % % % ~ % z A B % ~ % % % % % C D 5 x E ",
"  + + + % % @ % % % F | G F H G % ~ % % % % % % ~ % I ~ J % ~ % % % % @ K L M N O ",
"  + + + + % % % % % B ' % % P Q % ~ % % % % % % ~ % % % % % ~ % % % % C D R x S E ",
"    + + + % @ @ @ % % % % % % % % % % % % % % % % % % % % % % % % @ C h T M U x   ",
"    @ # & h _ @ @ @ @ % % % % % % % % % % % % % % % % % % % % @ C K D T V W S X   ",
"      $ * - Y & h h K h h h h h h h h h h h h h h h h h h h h # Z ` R M W  ...    ",
"        = +.< I i @.@.@.@.@.@.@.@.@.@.@.@.@.@.@.@.@.@.@.@.@.@.#.5 M x U S ..      ",
"          > [ 8 $.%.u u u u u u u u u u u u u u u u u u u u u &.*.N S x X         ",
"              9 P V =.=.=.=.=.=.=.=.=.=.=.=.=.=.=.=.=.=.=.=.=.+.E O E             "};
